<svg width="40" height="39" viewBox="0 0 40 39" fill="none" xmlns="http://www.w3.org/2000/svg">
<path fill-rule="evenodd" clip-rule="evenodd" d="M19.5833 0C8.76355 0 6.72996e-06 8.76354 6.72996e-06 19.5833C-0.00340249 23.6947 1.28853 27.7027 3.69236 31.0381C6.09619 34.3735 9.48973 36.8668 13.3911 38.164C14.3703 38.3344 14.7365 37.7469 14.7365 37.2318C14.7365 36.7677 14.711 35.2265 14.711 33.5854C9.79167 34.4921 8.51876 32.3869 8.12709 31.2844C7.9058 30.7204 6.95209 28.9833 6.1198 28.5173C5.43438 28.151 4.45521 27.2443 6.09434 27.2208C7.63751 27.1954 8.73809 28.6406 9.10626 29.2281C10.8688 32.1891 13.6848 31.3568 14.8089 30.8438C14.9813 29.5708 15.4943 28.715 16.0583 28.2255C11.701 27.7359 7.14792 26.0458 7.14792 18.5552C7.14792 16.4245 7.9058 14.664 9.15522 13.2932C8.95938 12.8036 8.27396 10.7963 9.35105 8.10358C9.35105 8.10358 10.9902 7.58854 14.7365 10.1089C16.3309 9.66759 17.978 9.44556 19.6323 9.44896C21.2969 9.44896 22.9615 9.66829 24.5281 10.1089C28.2725 7.56308 29.9135 8.10358 29.9135 8.10358C30.9906 10.7963 30.3052 12.8036 30.1094 13.2932C31.3568 14.664 32.1167 16.401 32.1167 18.5552C32.1167 26.0713 27.5401 27.7359 23.1828 28.2255C23.8917 28.8365 24.5046 30.0115 24.5046 31.8484C24.5046 34.4667 24.4792 36.5719 24.4792 37.2338C24.4792 37.7469 24.8473 38.3579 25.8265 38.162C29.7132 36.8485 33.0905 34.3498 35.4833 31.0173C37.8762 27.6847 39.1644 23.686 39.1667 19.5833C39.1667 8.76354 30.4031 0 19.5833 0Z" fill="#8FC748"/>
</svg>
